<?xml version="1.0" encoding="utf-8"?>
<!-- Generator: Adobe Illustrator 24.1.0, SVG Export Plug-In . SVG Version: 6.00 Build 0)  -->
<svg version="1.1" id="Layer_1" xmlns="http://www.w3.org/2000/svg" xmlns:xlink="http://www.w3.org/1999/xlink" x="0px" y="0px"
	 viewBox="0 0 1000 613" style="enable-background:new 0 0 1000 613;" xml:space="preserve">
<style type="text/css">
	.st0{fill:#E53134;}
	.st1{fill:url(#SVGID_1_);}
	.st2{opacity:0.14;}
	.st3{fill:#0072BB;}
	.st4{fill:#3B89C9;}
</style>
<g>
	<g>
		<g>
			<g>
				<g>
					<g>
						<path class="st0" d="M571,73.7c0,0-2.6,3.3-6.7,2.8c-2.8-0.5-5.6-0.3-8.4,0.5c-4.6,1.5-5.5,5.1-8.6,4.4
							c-3.5-0.9-4.1-2.5-4.1-2.5l-1.2,0.9l11.2,14.3l1.9-1.4c-1.5-1.6-1.8-4-0.8-5.9c2.2-5,7.7-4.4,11.5-6.3
							C569.6,78.6,571,73.7,571,73.7z"/>
						<path class="st0" d="M267.3,311.1c0,0,3.8-1.8,4.3-5.8c0.2-2.8,1.1-5.6,2.5-8c2.5-4.1,6.3-4.1,6.3-7.2c0-3.6-1.4-4.6-1.4-4.6
							l1.2-0.9l11.2,14.3l-1.9,1.4c-1.2-1.8-3.4-2.7-5.6-2.2c-5.4,1-6.1,6.4-8.9,9.7C272.4,310.9,267.3,311.1,267.3,311.1z"/>
					</g>
					<g>
						<path class="st0" d="M303,37.5c0,0,3.3,2.6,2.8,6.7c-0.5,2.8-0.3,5.6,0.5,8.4c1.5,4.6,5.1,5.5,4.4,8.6
							c-0.9,3.5-2.5,4.1-2.5,4.1l0.9,1.2l14.3-11.2l-1.4-1.9c-1.6,1.5-4,1.8-5.9,0.8c-5-2.2-4.4-7.7-6.3-11.5
							C307.8,39,303,37.5,303,37.5z"/>
						<path class="st0" d="M540.4,341.2c0,0-1.8-3.8-5.8-4.3c-2.8-0.2-5.6-1.1-8-2.5c-4.1-2.5-4.1-6.3-7.2-6.3
							c-3.6,0-4.6,1.4-4.6,1.4l-0.9-1.2l14.3-11.2l1.4,1.9c-1.8,1.2-2.7,3.4-2.2,5.6c1,5.4,6.4,6.1,9.7,8.9
							C540.1,336.1,540.4,341.2,540.4,341.2z"/>
					</g>
				</g>
				<g>
					<g>
						<path class="st0" d="M442.9,0.5c0,0,0.4,4.2-2.7,6.7c-2.3,1.6-4.2,3.8-5.5,6.3c-2.2,4.3-0.2,7.5-3,9.1
							c-3.1,1.9-4.7,1.1-4.7,1.1l-0.2,1.5l18,2.2l0.3-2.3c-2.2-0.1-4.1-1.5-4.8-3.6c-1.9-5.1,2.3-8.5,3.7-12.6
							C445.3,5,442.9,0.5,442.9,0.5z"/>
						<path class="st0" d="M396,383.2c0,0,1.4-3.9-1-7.2c-1.9-2.1-3.2-4.7-3.9-7.4c-1.1-4.7,1.6-7.3-0.7-9.6
							c-2.6-2.6-4.3-2.2-4.3-2.2l0.2-1.5l18,2.2l-0.3,2.3c-2.1-0.4-4.3,0.5-5.5,2.3c-3.1,4.5,0.2,8.8,0.5,13.1
							C399.4,379.4,396,383.2,396,383.2z"/>
					</g>
					<g>
						<path class="st0" d="M227.8,164.4c0,0,4.2-0.4,6.7,2.7c1.6,2.3,3.8,4.2,6.3,5.5c4.3,2.2,7.5,0.2,9.1,3
							c1.9,3.1,1.1,4.7,1.1,4.7l1.5,0.2l2.2-18l-2.3-0.3c-0.1,2.2-1.5,4.1-3.6,4.8c-5.1,1.9-8.5-2.3-12.6-3.7
							C232.3,162,227.8,164.4,227.8,164.4z"/>
						<path class="st0" d="M610.4,211.3c0,0-3.9-1.4-7.2,1c-2.1,1.9-4.7,3.2-7.4,3.9c-4.7,1.1-7.3-1.6-9.6,0.7
							c-2.6,2.6-2.2,4.3-2.2,4.3l-1.5-0.2l2.2-18l2.3,0.3c-0.4,2.1,0.5,4.3,2.3,5.5c4.5,3.1,8.8-0.2,13.1-0.5
							C606.7,207.9,610.4,211.3,610.4,211.3z"/>
					</g>
				</g>
			</g>
			<g>
				<g>
					<g>
						<path class="st0" d="M516.2,25.5c0,0-1.2,4-5.1,5.1c-2.8,0.6-5.4,1.8-7.6,3.6c-3.7,3-3.2,6.8-6.3,7.2
							c-3.6,0.5-4.7-0.8-4.7-0.8l-0.8,1.3l15.7,9.1l1.2-2c-2-1-3.2-3-3-5.2c0.2-5.4,5.5-6.9,8.3-10.1
							C516.7,30.6,516.2,25.5,516.2,25.5z"/>
						<path class="st0" d="M322.5,358.8c0,0,2.9-3.1,1.9-7c-0.9-2.7-1.1-5.6-0.6-8.3c0.8-4.7,4.3-6.1,3.2-9.1c-1.3-3.4-3-3.7-3-3.7
							l0.8-1.3l15.7,9.1l-1.2,2c-1.8-1.2-4.2-1.2-6,0c-4.6,2.9-3.3,8.2-4.7,12.3C327.1,356.7,322.5,358.8,322.5,358.8z"/>
					</g>
					<g>
						<path class="st0" d="M253.9,91.5c0,0,4,1.2,5.1,5.1c0.6,2.8,1.8,5.4,3.6,7.6c3,3.7,6.8,3.2,7.2,6.3c0.5,3.6-0.8,4.7-0.8,4.7
							l1.3,0.8l9.1-15.7l-2-1.2c-1,2-3,3.2-5.2,3c-5.4-0.2-6.9-5.5-10.1-8.3C259,91.1,253.9,91.5,253.9,91.5z"/>
						<path class="st0" d="M587.2,285.2c0,0-3.1-2.9-7-1.9c-2.7,0.9-5.6,1.1-8.3,0.6c-4.7-0.8-6.1-4.3-9.1-3.2c-3.4,1.3-3.7,3-3.7,3
							l-1.3-0.8l9.1-15.7l2,1.2c-1.2,1.8-1.2,4.2,0,6c2.9,4.6,8.2,3.3,12.3,4.7C585.1,280.6,587.2,285.2,587.2,285.2z"/>
					</g>
				</g>
				<g>
					<g>
						<path class="st0" d="M370.1,5.2c0,0,2,3.7,0,7.2c-1.5,2.4-2.5,5.1-2.8,7.9c-0.5,4.8,2.6,7.1,0.7,9.6c-2.2,2.9-3.9,2.8-3.9,2.8
							l0.4,1.5l17.5-4.6l-0.6-2.3c-2.1,0.7-4.4,0.1-5.8-1.6c-3.7-4-1-8.8-1.3-13.1C374,8.4,370.1,5.2,370.1,5.2z"/>
						<path class="st0" d="M468.8,377.8c0,0-0.1-4.2-3.6-6.3c-2.5-1.3-4.7-3.2-6.3-5.5c-2.8-3.9-1.3-7.4-4.2-8.7
							c-3.3-1.4-4.8-0.5-4.8-0.5l-0.4-1.5l17.5-4.6l0.6,2.3c-2.2,0.4-3.8,2.1-4.3,4.2c-1.2,5.3,3.5,8.1,5.4,12
							C470.6,373.1,468.8,377.8,468.8,377.8z"/>
					</g>
					<g>
						<path class="st0" d="M231.3,237.3c0,0,3.7-2,7.2,0c2.4,1.5,5.1,2.5,7.9,2.8c4.8,0.5,7.1-2.6,9.6-0.7c2.9,2.2,2.8,3.9,2.8,3.9
							l1.5-0.4l-4.6-17.5l-2.3,0.6c0.7,2.1,0.1,4.4-1.6,5.8c-4,3.7-8.8,1-13.1,1.3C234.6,233.5,231.3,237.3,231.3,237.3z"/>
						<path class="st0" d="M604,138.6c0,0-4.2,0.1-6.3,3.6c-1.3,2.5-3.2,4.7-5.5,6.3c-3.9,2.8-7.4,1.3-8.7,4.2
							c-1.4,3.3-0.5,4.8-0.5,4.8l-1.5,0.4l-4.6-17.5l2.3-0.6c0.4,2.2,2.1,3.8,4.2,4.3c5.3,1.2,8.1-3.5,12-5.4
							C599.2,136.9,604,138.6,604,138.6z"/>
					</g>
				</g>
			</g>
		</g>
		<g>
			<g>
				<g>
					<g>
						<path class="st0" d="M545.6,46.6c0,0-2,3.7-6,4c-2.8,0.1-5.6,0.8-8.1,2.1c-4.2,2.3-4.4,6.1-7.6,5.9c-3.6-0.2-4.5-1.7-4.5-1.7
							l-1,1.1l13.7,11.9l1.5-1.8c-1.8-1.3-2.5-3.6-2-5.7c1.2-5.3,6.7-5.8,10.1-8.4C545,51.7,545.6,46.6,545.6,46.6z"/>
						<path class="st0" d="M293,337.9c0,0,3.4-2.5,3.2-6.5c-0.3-2.8,0-5.7,0.9-8.3c1.7-4.5,5.4-5.2,4.8-8.3
							c-0.7-3.6-2.3-4.2-2.3-4.2l1-1.1l13.7,11.9l-1.5,1.8c-1.5-1.6-3.9-2-5.9-1.1c-5.1,2-4.7,7.4-6.9,11.2
							C297.9,336.7,293,337.9,293,337.9z"/>
					</g>
					<g>
						<path class="st0" d="M275.5,62.5c0,0,3.7,2,4,6c0.1,2.8,0.8,5.6,2.1,8.1c2.3,4.2,6.1,4.4,5.9,7.6c-0.2,3.6-1.7,4.5-1.7,4.5
							l1.1,1L299,76l-1.8-1.5c-1.3,1.8-3.6,2.5-5.7,2c-5.3-1.2-5.8-6.7-8.4-10.1C280.6,63.1,275.5,62.5,275.5,62.5z"/>
						<path class="st0" d="M566.8,315.1c0,0-2.5-3.4-6.5-3.2c-2.8,0.3-5.7,0-8.3-0.9c-4.5-1.7-5.2-5.4-8.3-4.8
							c-3.6,0.7-4.2,2.3-4.2,2.3l-1.1-1l11.9-13.7l1.8,1.5c-1.6,1.5-2,3.9-1.1,5.9c2,5.1,7.4,4.7,11.2,6.9
							C565.6,310.1,566.8,315.1,566.8,315.1z"/>
					</g>
				</g>
				<g>
					<g>
						<path class="st0" d="M405.8-0.6c0,0,1.2,4-1.4,7.1c-2,2-3.4,4.5-4.2,7.2c-1.3,4.6,1.2,7.4-1.1,9.5c-2.7,2.4-4.4,2-4.4,2
							l0.1,1.5l18.1-1.3l-0.2-2.3c-2.2,0.3-4.3-0.7-5.4-2.6c-2.9-4.6,0.7-8.8,1.2-13.1C409,3.3,405.8-0.6,405.8-0.6z"/>
						<path class="st0" d="M433.2,383.9c0,0,0.7-4.2-2.4-6.8c-2.2-1.7-4-4-5.2-6.5c-2-4.4,0.1-7.5-2.5-9.3c-3-2-4.6-1.4-4.6-1.4
							l-0.1-1.5l18.1-1.3l0.2,2.3c-2.2,0-4.2,1.3-5,3.4c-2.2,5,1.9,8.6,3,12.8C435.8,379.6,433.2,383.9,433.2,383.9z"/>
					</g>
					<g>
						<path class="st0" d="M226.1,201.6c0,0,4-1.2,7.1,1.4c2,2,4.5,3.4,7.2,4.2c4.6,1.3,7.4-1.2,9.5,1.1c2.4,2.7,2,4.4,2,4.4
							l1.5-0.1l-1.3-18.1l-2.3,0.2c0.3,2.2-0.7,4.3-2.6,5.4c-4.6,2.9-8.8-0.7-13.1-1.2C230,198.4,226.1,201.6,226.1,201.6z"/>
						<path class="st0" d="M610.6,174.2c0,0-4.2-0.7-6.8,2.4c-1.7,2.2-4,4-6.5,5.2c-4.4,2-7.5-0.1-9.3,2.5c-2,3-1.4,4.6-1.4,4.6
							l-1.5,0.1l-1.3-18.1l2.3-0.2c0,2.2,1.3,4.2,3.4,5c5,2.2,8.6-1.9,12.8-3C606.3,171.6,610.6,174.2,610.6,174.2z"/>
					</g>
				</g>
			</g>
			<g>
				<g>
					<g>
						<path class="st0" d="M482.5,9.9c0,0-0.4,4.2-4.1,6c-2.6,1.1-4.9,2.8-6.7,5c-3,3.7-1.8,7.3-4.8,8.3c-3.4,1.2-4.8,0.1-4.8,0.1
							l-0.5,1.4l17.1,5.9l0.8-2.2c-2.1-0.6-3.7-2.4-3.9-4.5c-0.8-5.4,4.1-7.8,6.2-11.6C483.9,14.7,482.5,9.9,482.5,9.9z"/>
						<path class="st0" d="M356.4,374.2c0,0,2.2-3.6,0.5-7.2c-1.4-2.5-2.1-5.2-2.2-8.1c-0.1-4.8,3.1-6.9,1.4-9.5
							c-2-3.1-3.7-3.1-3.7-3.1l0.5-1.4l17.1,5.9l-0.8,2.2c-2-0.9-4.3-0.4-5.9,1.1c-4,3.7-1.6,8.7-2.2,12.9
							C360.5,371.2,356.4,374.2,356.4,374.2z"/>
					</g>
					<g>
						<path class="st0" d="M237.7,125c0,0,4.2,0.4,6,4.1c1.1,2.6,2.8,4.9,5,6.7c3.7,3,7.3,1.8,8.3,4.8c1.2,3.4,0.1,4.8,0.1,4.8
							l1.4,0.5l5.9-17.1l-2.2-0.8c-0.6,2.1-2.4,3.7-4.5,3.9c-5.4,0.8-7.8-4.1-11.6-6.2C242.6,123.6,237.7,125,237.7,125z"/>
						<path class="st0" d="M602.1,251.2c0,0-3.6-2.2-7.2-0.5c-2.5,1.4-5.2,2.1-8.1,2.2c-4.8,0.1-6.9-3.1-9.5-1.4
							c-3.1,2-3.1,3.7-3.1,3.7l-1.4-0.5l5.9-17.1l2.2,0.8c-0.9,2-0.4,4.3,1.1,5.9c3.7,4,8.7,1.6,12.9,2.2
							C599.1,247,602.1,251.2,602.1,251.2z"/>
					</g>
				</g>
				<g>
					<g>
						<path class="st0" d="M335.2,17.9c0,0,2.6,3.3,1.4,7.1c-1.1,2.6-1.5,5.5-1.2,8.3c0.5,4.8,3.9,6.4,2.5,9.3
							c-1.6,3.3-3.3,3.5-3.3,3.5l0.7,1.4l16.3-7.9l-1-2.1c-1.9,1.1-4.3,0.9-6-0.4c-4.4-3.2-2.7-8.4-3.8-12.6
							C339.7,20.4,335.2,17.9,335.2,17.9z"/>
						<path class="st0" d="M503.6,364.8c0,0-0.9-4.1-4.7-5.5c-2.7-0.8-5.2-2.2-7.3-4.1c-3.5-3.3-2.7-7-5.8-7.7
							c-3.5-0.8-4.8,0.4-4.8,0.4l-0.7-1.4l16.3-7.9l1,2.1c-2,0.8-3.4,2.8-3.4,5c-0.2,5.4,5,7.3,7.6,10.7
							C504.4,359.7,503.6,364.8,503.6,364.8z"/>
					</g>
					<g>
						<path class="st0" d="M243.5,272.4c0,0,3.3-2.6,7.1-1.4c2.6,1.1,5.5,1.5,8.3,1.2c4.8-0.5,6.4-3.9,9.3-2.5
							c3.3,1.6,3.5,3.3,3.5,3.3l1.4-0.7l-7.9-16.3l-2.1,1c1.1,1.9,0.9,4.3-0.4,6c-3.2,4.4-8.4,2.7-12.6,3.8
							C246,268,243.5,272.4,243.5,272.4z"/>
						<path class="st0" d="M590.4,104c0,0-4.1,0.9-5.5,4.7c-0.8,2.7-2.2,5.2-4.1,7.3c-3.3,3.5-7,2.7-7.7,5.8
							c-0.8,3.5,0.4,4.8,0.4,4.8l-1.4,0.7l-7.9-16.3l2.1-1c0.8,2,2.8,3.4,5,3.4c5.4,0.2,7.3-5,10.7-7.6
							C585.3,103.2,590.4,104,590.4,104z"/>
					</g>
				</g>
			</g>
		</g>
	</g>
	<g>
		<g>
			<g>
				<g>
					<g>
						<path class="st0" d="M557.8,58.9c0,0-2.3,3.5-6.3,3.5c-2.8-0.2-5.7,0.3-8.3,1.4c-4.4,1.9-4.9,5.7-8.1,5.2
							c-3.6-0.5-4.3-2.1-4.3-2.1l-1.1,1.1L542.3,81l1.7-1.6c-1.6-1.5-2.2-3.8-1.4-5.8c1.7-5.2,7.2-5.1,10.8-7.5
							C556.8,63.9,557.8,58.9,557.8,58.9z"/>
						<path class="st0" d="M280.1,326.3c0,0,3.6-2.2,3.7-6.2c-0.1-2.8,0.5-5.6,1.7-8.2c2.1-4.3,5.9-4.7,5.5-7.9
							c-0.4-3.6-1.9-4.4-1.9-4.4l1.1-1.1l12.6,13.1l-1.7,1.6c-1.4-1.7-3.7-2.3-5.8-1.7c-5.2,1.5-5.4,7-7.9,10.5
							C285.1,325.5,280.1,326.3,280.1,326.3z"/>
					</g>
					<g>
						<path class="st0" d="M287.4,50.4c0,0,3.5,2.3,3.5,6.3c-0.2,2.8,0.3,5.7,1.4,8.3c1.9,4.4,5.7,4.9,5.2,8.1
							c-0.5,3.6-2.1,4.3-2.1,4.3l1.1,1.1l13.1-12.6l-1.6-1.7c-1.5,1.6-3.8,2.2-5.8,1.4c-5.2-1.7-5.1-7.2-7.5-10.8
							C292.4,51.4,287.4,50.4,287.4,50.4z"/>
						<path class="st0" d="M554.8,328.1c0,0-2.2-3.6-6.2-3.7c-2.8,0.1-5.6-0.5-8.2-1.7c-4.3-2.1-4.7-5.9-7.9-5.5
							c-3.6,0.4-4.4,1.9-4.4,1.9l-1.1-1.1l13.1-12.6l1.6,1.7c-1.7,1.4-2.3,3.7-1.7,5.8c1.5,5.2,7,5.4,10.5,7.9
							C554,323.1,554.8,328.1,554.8,328.1z"/>
					</g>
				</g>
				<g>
					<g>
						<path class="st0" d="M422.8-0.8c0,0,0.9,4.1-2,6.9C418.7,8,417,10.4,416,13c-1.7,4.5,0.5,7.5-2,9.4c-2.9,2.2-4.5,1.6-4.5,1.6
							l0,1.5l18.1,0.3l0-2.3c-2.2,0.1-4.2-1.1-5.1-3.1c-2.4-4.9,1.5-8.7,2.4-12.9C425.7,3.5,422.8-0.8,422.8-0.8z"/>
						<path class="st0" d="M415.6,384.7c0,0,1-4.1-1.7-7c-2.1-1.9-3.6-4.3-4.6-7c-1.6-4.5,0.8-7.5-1.6-9.5c-2.8-2.3-4.5-1.8-4.5-1.8
							l0-1.5l18.1,0.3l0,2.3c-2.2-0.2-4.3,0.9-5.2,2.9c-2.6,4.8,1.1,8.8,1.9,13C418.5,380.6,415.6,384.7,415.6,384.7z"/>
					</g>
					<g>
						<path class="st0" d="M225.7,184.4c0,0,4.1-0.9,6.9,2c1.9,2.1,4.2,3.8,6.8,4.9c4.5,1.7,7.5-0.5,9.4,2c2.2,2.9,1.6,4.5,1.6,4.5
							l1.5,0l0.3-18.1l-2.3,0c0.1,2.2-1.1,4.2-3.1,5.1c-4.9,2.4-8.7-1.5-12.9-2.4C229.9,181.6,225.7,184.4,225.7,184.4z"/>
						<path class="st0" d="M611.1,191.7c0,0-4.1-1-7,1.7c-1.9,2.1-4.3,3.6-7,4.6c-4.5,1.6-7.5-0.8-9.5,1.6c-2.3,2.8-1.8,4.5-1.8,4.5
							l-1.5,0l0.3-18.1l2.3,0c-0.2,2.2,0.9,4.3,2.9,5.2c4.8,2.6,8.8-1.1,13-1.9C607,188.7,611.1,191.7,611.1,191.7z"/>
					</g>
				</g>
			</g>
			<g>
				<g>
					<g>
						<path class="st0" d="M498.3,16.6c0,0-0.8,4.1-4.6,5.6c-2.7,0.9-5.1,2.4-7.2,4.3c-3.4,3.4-2.5,7.1-5.5,7.9
							c-3.5,0.9-4.8-0.3-4.8-0.3l-0.6,1.4l16.5,7.4l1-2.1c-2.1-0.7-3.4-2.7-3.5-4.9c-0.3-5.4,4.8-7.4,7.3-11
							C499.3,21.6,498.3,16.6,498.3,16.6z"/>
						<path class="st0" d="M339.9,368.1c0,0,2.5-3.3,1.2-7.1c-1.1-2.6-1.6-5.4-1.5-8.2c0.3-4.8,3.7-6.5,2.2-9.4
							c-1.7-3.2-3.4-3.4-3.4-3.4l0.6-1.4l16.5,7.4l-1,2.1c-1.9-1-4.3-0.8-6,0.6c-4.3,3.4-2.4,8.5-3.4,12.7
							C344.3,365.5,339.9,368.1,339.9,368.1z"/>
					</g>
					<g>
						<path class="st0" d="M244.2,109.2c0,0,4.1,0.8,5.6,4.6c0.9,2.7,2.4,5.1,4.3,7.2c3.4,3.4,7.1,2.5,7.9,5.5
							c0.9,3.5-0.3,4.8-0.3,4.8l1.4,0.6l7.4-16.5l-2.1-1c-0.7,2.1-2.7,3.4-4.9,3.5c-5.4,0.3-7.4-4.8-11-7.3
							C249.2,108.3,244.2,109.2,244.2,109.2z"/>
						<path class="st0" d="M595.7,267.6c0,0-3.3-2.5-7.1-1.2c-2.6,1.1-5.4,1.6-8.2,1.5c-4.8-0.3-6.5-3.7-9.4-2.2
							c-3.2,1.7-3.4,3.4-3.4,3.4l-1.4-0.6l7.4-16.5l2.1,1c-1,1.9-0.8,4.3,0.6,6c3.4,4.3,8.5,2.4,12.7,3.4
							C593.1,263.3,595.7,267.6,595.7,267.6z"/>
					</g>
				</g>
				<g>
					<g>
						<path class="st0" d="M350.9,11.4c0,0,2.3,3.5,0.7,7.2c-1.3,2.5-2,5.3-2,8.1c0,4.8,3.3,6.8,1.6,9.5c-1.9,3.1-3.6,3.2-3.6,3.2
							l0.5,1.4l16.9-6.4l-0.8-2.2c-2,0.9-4.3,0.5-5.9-1c-4.1-3.6-1.9-8.6-2.6-12.9C355.1,14.2,350.9,11.4,350.9,11.4z"/>
						<path class="st0" d="M487.4,371.9c0,0-0.6-4.2-4.2-5.9c-2.6-1-5-2.7-6.9-4.8c-3.1-3.6-2-7.2-5-8.2c-3.5-1.1-4.8,0-4.8,0
							l-0.5-1.4l16.9-6.4l0.8,2.2c-2.1,0.6-3.6,2.5-3.8,4.6c-0.7,5.4,4.3,7.7,6.6,11.4C488.7,367,487.4,371.9,487.4,371.9z"/>
					</g>
					<g>
						<path class="st0" d="M236.7,256.6c0,0,3.5-2.3,7.2-0.7c2.5,1.3,5.3,2,8.1,2c4.8,0,6.8-3.3,9.5-1.6c3.1,1.9,3.2,3.6,3.2,3.6
							l1.4-0.5l-6.4-16.9l-2.2,0.8c0.9,2,0.5,4.3-1,5.9c-3.6,4.1-8.6,1.9-12.9,2.6C239.5,252.4,236.7,256.6,236.7,256.6z"/>
						<path class="st0" d="M597.2,120.1c0,0-4.2,0.6-5.9,4.2c-1,2.6-2.7,5-4.8,6.9c-3.6,3.1-7.2,2-8.2,5c-1.1,3.5,0,4.8,0,4.8
							l-1.4,0.5l-6.4-16.9l2.2-0.8c0.6,2.1,2.5,3.6,4.6,3.8c5.4,0.7,7.7-4.3,11.4-6.6C592.3,118.8,597.2,120.1,597.2,120.1z"/>
					</g>
				</g>
			</g>
		</g>
		<g>
			<g>
				<g>
					<g>
						<path class="st0" d="M529.7,34.6c0,0-1.6,3.9-5.5,4.6c-2.8,0.3-5.5,1.4-7.8,2.9c-3.9,2.7-3.7,6.5-6.9,6.7
							c-3.6,0.2-4.7-1.2-4.7-1.2l-0.9,1.2l14.8,10.4l1.3-1.9c-1.9-1.1-2.9-3.3-2.5-5.4c0.7-5.4,6.1-6.4,9.2-9.4
							C529.7,39.7,529.7,34.6,529.7,34.6z"/>
						<path class="st0" d="M308.4,350.3c0,0,3.1-2.8,2.5-6.8c-0.6-2.8-0.6-5.6,0.1-8.4c1.2-4.6,4.8-5.7,3.9-8.8c-1-3.5-2.7-4-2.7-4
							l0.9-1.2l14.8,10.4l-1.3,1.9c-1.7-1.4-4.1-1.6-6-0.5c-4.8,2.5-4,7.9-5.7,11.8C313.2,348.6,308.4,350.3,308.4,350.3z"/>
					</g>
					<g>
						<path class="st0" d="M262.7,78.2c0,0,3.9,1.6,4.6,5.5c0.3,2.8,1.4,5.5,2.9,7.8c2.7,3.9,6.5,3.7,6.7,6.9
							c0.2,3.6-1.2,4.7-1.2,4.7l1.2,0.9l10.4-14.8l-1.9-1.3c-1.1,1.9-3.3,2.9-5.4,2.5c-5.4-0.7-6.4-6.1-9.4-9.2
							C267.8,78.2,262.7,78.2,262.7,78.2z"/>
						<path class="st0" d="M578.4,299.4c0,0-2.8-3.1-6.8-2.5c-2.8,0.6-5.6,0.6-8.4-0.1c-4.6-1.2-5.7-4.8-8.8-3.9c-3.5,1-4,2.7-4,2.7
							l-1.2-0.9l10.4-14.8l1.9,1.3c-1.4,1.7-1.6,4.1-0.5,6c2.5,4.8,7.9,4,11.8,5.7C576.7,294.6,578.4,299.4,578.4,299.4z"/>
					</g>
				</g>
				<g>
					<g>
						<path class="st0" d="M385.8,2c0,0,1.6,3.9-0.6,7.2c-1.7,2.2-2.9,4.8-3.5,7.6c-0.9,4.7,2,7.3-0.2,9.6c-2.4,2.7-4.1,2.5-4.1,2.5
							l0.3,1.5l17.8-3.1l-0.4-2.3c-2.1,0.5-4.4-0.3-5.6-2c-3.3-4.3-0.2-8.8-0.2-13.1C389.4,5.6,385.8,2,385.8,2z"/>
						<path class="st0" d="M452.6,381.7c0,0,0.2-4.2-3.1-6.6c-2.4-1.5-4.4-3.5-5.9-6c-2.4-4.1-0.6-7.5-3.4-9
							c-3.2-1.7-4.7-0.9-4.7-0.9l-0.3-1.5l17.8-3.1l0.4,2.3c-2.2,0.2-4,1.7-4.6,3.8c-1.7,5.2,2.8,8.4,4.3,12.4
							C454.7,377.1,452.6,381.7,452.6,381.7z"/>
					</g>
					<g>
						<path class="st0" d="M227.8,221.6c0,0,3.9-1.6,7.2,0.6c2.2,1.7,4.8,2.9,7.6,3.5c4.7,0.9,7.3-2,9.6,0.2
							c2.7,2.4,2.5,4.1,2.5,4.1l1.5-0.3l-3.1-17.8l-2.3,0.4c0.5,2.1-0.3,4.4-2,5.6c-4.3,3.3-8.8,0.2-13.1,0.2
							C231.4,218,227.8,221.6,227.8,221.6z"/>
						<path class="st0" d="M607.5,154.7c0,0-4.2-0.2-6.6,3.1c-1.5,2.4-3.5,4.4-6,5.9c-4.1,2.4-7.5,0.6-9,3.4
							c-1.7,3.2-0.9,4.7-0.9,4.7l-1.5,0.3l-3.1-17.8l2.3-0.4c0.2,2.2,1.7,4,3.8,4.6c5.2,1.7,8.4-2.8,12.4-4.3
							C602.9,152.6,607.5,154.7,607.5,154.7z"/>
					</g>
				</g>
			</g>
			<g>
				<g>
					<g>
						<path class="st0" d="M463.2,4.5c0,0,0,4.2-3.4,6.4c-2.5,1.4-4.6,3.3-6.2,5.6c-2.6,4-1.1,7.4-3.9,8.8c-3.3,1.5-4.8,0.6-4.8,0.6
							l-0.3,1.5l17.6,4.1l0.5-2.3c-2.2-0.3-3.9-2-4.4-4.1c-1.4-5.3,3.2-8.2,5-12.1C465.1,9.2,463.2,4.5,463.2,4.5z"/>
						<path class="st0" d="M375.2,379.8c0,0,1.9-3.8-0.2-7.2c-1.6-2.3-2.7-5-3-7.8c-0.6-4.8,2.4-7.1,0.4-9.6c-2.3-2.8-4-2.7-4-2.7
							l0.3-1.5l17.6,4.1l-0.5,2.3c-2.1-0.7-4.4,0-5.7,1.7c-3.6,4.1-0.7,8.8-0.9,13.1C378.9,376.4,375.2,379.8,375.2,379.8z"/>
					</g>
					<g>
						<path class="st0" d="M231.5,144.2c0,0,4.2,0,6.4,3.4c1.4,2.5,3.3,4.6,5.6,6.2c4,2.6,7.4,1.1,8.8,3.9c1.5,3.3,0.6,4.8,0.6,4.8
							l1.5,0.3l4.1-17.6l-2.3-0.5c-0.3,2.2-2,3.9-4.1,4.4c-5.3,1.4-8.2-3.2-12.1-5C236.3,142.3,231.5,144.2,231.5,144.2z"/>
						<path class="st0" d="M606.9,232.2c0,0-3.8-1.9-7.2,0.2c-2.3,1.6-5,2.7-7.8,3c-4.8,0.6-7.1-2.4-9.6-0.4c-2.8,2.3-2.7,4-2.7,4
							l-1.5-0.3l4.1-17.6l2.3,0.5c-0.7,2.1,0,4.4,1.7,5.7c4.1,3.6,8.8,0.7,13.1,0.9C603.5,228.4,606.9,232.2,606.9,232.2z"/>
					</g>
				</g>
				<g>
					<g>
						<path class="st0" d="M317.5,27.7c0,0,3,3,2.1,6.9c-0.8,2.7-0.9,5.6-0.4,8.4c1,4.7,4.5,6,3.4,9c-1.2,3.4-2.9,3.8-2.9,3.8
							l0.8,1.3l15.4-9.6l-1.2-2c-1.8,1.3-4.1,1.4-6,0.2c-4.7-2.8-3.5-8.1-5-12.1C322.2,29.7,317.5,27.7,317.5,27.7z"/>
						<path class="st0" d="M520.7,355.3c0,0-1.3-4-5.3-4.9c-2.8-0.5-5.4-1.7-7.7-3.4c-3.8-2.9-3.4-6.7-6.5-7.1
							c-3.6-0.4-4.7,0.9-4.7,0.9l-0.8-1.3l15.4-9.6l1.2,2c-1.9,1-3.1,3.1-2.8,5.3c0.4,5.4,5.7,6.7,8.6,9.9
							C520.9,350.3,520.7,355.3,520.7,355.3z"/>
					</g>
					<g>
						<path class="st0" d="M252.5,290.3c0,0,3-3,6.9-2.1c2.7,0.8,5.6,0.9,8.4,0.4c4.7-1,6-4.5,9-3.4c3.4,1.2,3.8,2.9,3.8,2.9
							l1.3-0.8l-9.6-15.4l-2,1.2c1.3,1.8,1.4,4.1,0.2,6c-2.8,4.7-8.1,3.5-12.1,5C254.5,285.6,252.5,290.3,252.5,290.3z"/>
						<path class="st0" d="M580.1,87.1c0,0-4,1.3-4.9,5.3c-0.5,2.8-1.7,5.4-3.4,7.7c-2.9,3.8-6.7,3.4-7.1,6.5
							c-0.4,3.6,0.9,4.7,0.9,4.7l-1.3,0.8l-9.6-15.4l2-1.2c1,1.9,3.1,3.1,5.3,2.8c5.4-0.4,6.7-5.7,9.9-8.6
							C575,86.8,580.1,87.1,580.1,87.1z"/>
					</g>
				</g>
			</g>
		</g>
	</g>
</g>
<g>
	
		<radialGradient id="SVGID_1_" cx="418.5" cy="422.5" r="167.5" gradientTransform="matrix(0.6158 0.7879 0.7879 -0.6158 -171.8767 121.9498)" gradientUnits="userSpaceOnUse">
		<stop  offset="0" style="stop-color:#FEF200"/>
		<stop  offset="1" style="stop-color:#F28F31"/>
	</radialGradient>
	<circle class="st1" cx="418.7" cy="191.5" r="167.5"/>
	<path class="st0" d="M549.9,88.9c56.6,72.4,43.8,177.1-28.6,233.7S344.2,366.5,287.5,294s-43.8-177.1,28.6-233.7
		S493.3,16.5,549.9,88.9 M551.5,87.7C494.2,14.4,388.3,1.4,315,58.7c-35.2,27.5-58,67.9-63.5,112.3
		c-11.3,92.4,54.4,176.4,146.8,187.7S574.7,304.4,586,212C591.5,167.6,579.1,122.9,551.5,87.7z"/>
</g>
<g class="st2">
	<path d="M565.7,92.9h71.2c36.5,0,67.5,15.5,67.5,56.3c0,24.5-9.5,34.8-31.4,42.1v1.3c3,2.4,6.7,4.9,9.9,9.7l35.3,52.7h-67.9
		l-25.8-52h-1.1v52h-57.6V92.9z M623.3,164.7h4.1c9.7,0,19.3-1.5,19.3-13.5c0-12.5-8.8-14-18.9-14h-4.5L623.3,164.7z"/>
	<path d="M716.8,92.9h58.9V255h-58.9V92.9z"/>
	<path d="M964.5,174.4c0,52-40.2,83.2-89.7,83.2s-89.7-31.2-89.7-83.2c0-51,40.4-84.1,89.7-84.1S964.5,123.4,964.5,174.4z
		 M844.5,175.2c0,18.5,12.5,31.2,30.3,31.2c17.8,0,30.3-12.7,30.3-31.2c0-17.2-11.6-31.6-30.3-31.6S844.5,158,844.5,175.2
		L844.5,175.2z"/>
	<path d="M186.2,336.5c-0.4,26.4-0.4,48.6-19.6,69.2c-17.2,18.7-43.6,28.8-68.8,28.8c-49.4,0-89.4-30.5-89.4-82.6
		c0-52.9,38.9-84.7,89.9-84.7c28.2,0,66.9,14,79.5,41.7l-55,20.2c-4.5-8.2-12.9-12.5-22.4-12.5c-21.1,0-32.7,18.1-32.7,37.6
		c0,17.8,11.2,34.6,30.3,34.6c9.2,0,21.1-4.3,23.9-14.2H95.2v-38.3H186.2z"/>
	<path d="M194.4,269.9h71.2c36.5,0,67.5,15.5,67.5,56.3c0,24.5-9.5,34.8-31.4,42.1v1.3c3,2.4,6.7,4.9,9.9,9.7l35.3,52.7h-67.9
		L253,380H252v52h-57.6V269.9z M252,341.7h4.1c9.7,0,19.4-1.5,19.4-13.5c0-12.5-8.8-14-18.9-14H252V341.7z"/>
	<path d="M392.8,432h-62.3l56.3-162.1h65.1L509.8,432h-62.3l-5.4-20.2h-44.5L392.8,432z M431.7,373.3l-6.9-28.6
		c-1.7-6.9-2.8-14-3.9-20.9h-2.1l-10.8,49.4H431.7z"/>
	<path d="M509.1,269.9h56.5l52.9,89.9h1.7c-2.4-13.5-4.9-27.5-4.9-41.3v-48.6h56.3V432h-56.3l-51.8-85.1h-1.7
		c1.9,11.2,3.7,21.7,3.7,32.5V432h-56.3V269.9z"/>
	<path d="M685.8,269.9h60c54.4,0,96.1,23.9,96.1,83.4c0,48.2-34,78.7-81.5,78.7h-74.6V269.9z M744.7,383.4h3.7
		c19.6,0,34.6-9,34.6-30.3c0-22.8-13.1-32.5-34.6-32.5h-3.7V383.4z"/>
	<path d="M850.3,269.9h109v44.3h-49.7v15.5H955v42.1h-45.4v15.9H961V432H850.3V269.9z"/>
	<path d="M326.8,513.5c-0.4,26.4-0.4,48.6-19.6,69.2c-17.2,18.7-43.6,28.8-68.8,28.8c-49.4,0-89.4-30.5-89.4-82.6
		c0-52.9,38.9-84.7,89.9-84.7c28.2,0,66.9,14,79.5,41.7l-55,20.2c-4.5-8.2-12.9-12.5-22.4-12.5c-21.1,0-32.7,18.1-32.7,37.6
		c0,17.8,11.2,34.6,30.3,34.6c9.2,0,21.1-4.3,23.9-14.2h-26.7v-38.3H326.8z"/>
	<path d="M382.7,609h-62.3l56.3-162.1h65.1L499.6,609h-62.3l-5.4-20.2h-44.5L382.7,609z M421.6,550.3l-6.9-28.6
		c-1.7-6.9-2.8-14-3.9-20.9h-2.1L398,550.3H421.6z"/>
	<path d="M519.4,446.9h60.6l22.4,85.1h1.5c1.1-7.1,2.2-14.6,4.1-21.5l18.3-63.6h60L712.9,609h-57l-8-88.8h-1.1
		c-1,5.4-2.3,10.8-3.9,16.1L619.6,609h-34.4l-21.1-68.6c-1.7-6.9-3.2-13.3-3.7-20.2h-1.9c-0.4,6.5-0.9,13.1-1.5,19.6l-6.9,69.2h-57
		L519.4,446.9z"/>
	<path d="M719.8,446.9h109v44.3h-49.7v15.5h45.4v42.1h-45.4v15.9h51.4V609H719.8V446.9z"/>
	<path d="M852.5,551l3,2.4c10.5,8.2,23.2,14.8,36.8,14.8c5.8,0,15.1-2.4,15.1-9.7s-7.7-8-13.1-9l-11.8-2.2
		c-23-4.1-42.4-17.6-42.4-43c0-38.5,35-60,70.3-60c18.1-0.2,35.9,4.7,51.4,14.2L945.8,500c-10.1-6.9-21.5-12.3-34.2-12.3
		c-5.2,0-12.7,1.9-12.7,8.6c0,6,7.3,6.9,11.8,8l13.3,3c24.9,5.6,43,18.9,43,46.4c0,38.7-35.3,57.8-70.3,57.8
		c-21.6-0.3-42.9-5.3-62.3-14.8L852.5,551z"/>
</g>
<path class="st3" d="M565.7,86.9h71.2c36.5,0,67.5,15.5,67.5,56.3c0,24.5-9.5,34.8-31.4,42.1v1.3c3,2.4,6.7,4.9,9.9,9.7l35.3,52.7
	h-67.9l-25.8-52h-1.1v52h-57.6V86.9z M623.3,158.7h4.1c9.7,0,19.3-1.5,19.3-13.5c0-12.5-8.8-14-18.9-14h-4.5L623.3,158.7z"/>
<path class="st3" d="M716.8,86.9h58.9V249h-58.9V86.9z"/>
<path class="st3" d="M964.5,168.4c0,52-40.2,83.2-89.7,83.2s-89.7-31.2-89.7-83.2c0-51,40.4-84.1,89.7-84.1S964.5,117.4,964.5,168.4
	z M844.5,169.2c0,18.5,12.5,31.2,30.3,31.2c17.8,0,30.3-12.7,30.3-31.2c0-17.2-11.6-31.6-30.3-31.6S844.5,152,844.5,169.2
	L844.5,169.2z"/>
<path class="st3" d="M186.2,330.5c-0.4,26.4-0.4,48.6-19.6,69.2c-17.2,18.7-43.6,28.8-68.8,28.8c-49.4,0-89.4-30.5-89.4-82.6
	c0-52.9,38.9-84.7,89.9-84.7c28.2,0,66.9,14,79.5,41.7l-55,20.2c-4.5-8.2-12.9-12.5-22.4-12.5c-21.1,0-32.7,18.1-32.7,37.6
	c0,17.8,11.2,34.6,30.3,34.6c9.2,0,21.1-4.3,23.9-14.2H95.2v-38.3H186.2z"/>
<path class="st3" d="M194.4,263.9h71.2c36.5,0,67.5,15.5,67.5,56.3c0,24.5-9.5,34.8-31.4,42.1v1.3c3,2.4,6.7,4.9,9.9,9.7l35.3,52.7
	h-67.9L253,374H252v52h-57.6V263.9z M252,335.7h4.1c9.7,0,19.4-1.5,19.4-13.5c0-12.5-8.8-14-18.9-14H252V335.7z"/>
<path class="st3" d="M392.8,426h-62.3l56.3-162.1h65.1L509.8,426h-62.3l-5.4-20.2h-44.5L392.8,426z M431.7,367.3l-6.9-28.6
	c-1.7-6.9-2.8-14-3.9-20.9h-2.1l-10.8,49.4H431.7z"/>
<path class="st3" d="M509.1,263.9h56.5l52.9,89.9h1.7c-2.4-13.5-4.9-27.5-4.9-41.3v-48.6h56.3V426h-56.3l-51.8-85.1h-1.7
	c1.9,11.2,3.7,21.7,3.7,32.5V426h-56.3V263.9z"/>
<path class="st3" d="M685.8,263.9h60c54.4,0,96.1,23.9,96.1,83.4c0,48.2-34,78.7-81.5,78.7h-74.6V263.9z M744.7,377.4h3.7
	c19.6,0,34.6-9,34.6-30.3c0-22.8-13.1-32.5-34.6-32.5h-3.7V377.4z"/>
<path class="st3" d="M850.3,263.9h109v44.3h-49.7v15.5H955v42.1h-45.4v15.9H961V426H850.3V263.9z"/>
<path class="st3" d="M326.8,507.5c-0.4,26.4-0.4,48.6-19.6,69.2c-17.2,18.7-43.6,28.8-68.8,28.8c-49.4,0-89.4-30.5-89.4-82.6
	c0-52.9,38.9-84.7,89.9-84.7c28.2,0,66.9,14,79.5,41.7l-55,20.2c-4.5-8.2-12.9-12.5-22.4-12.5c-21.1,0-32.7,18.1-32.7,37.6
	c0,17.8,11.2,34.6,30.3,34.6c9.2,0,21.1-4.3,23.9-14.2h-26.7v-38.3H326.8z"/>
<path class="st3" d="M382.7,603h-62.3l56.3-162.1h65.1L499.6,603h-62.3l-5.4-20.2h-44.5L382.7,603z M421.6,544.3l-6.9-28.6
	c-1.7-6.9-2.8-14-3.9-20.9h-2.1L398,544.3H421.6z"/>
<path class="st3" d="M519.4,440.9h60.6l22.4,85.1h1.5c1.1-7.1,2.2-14.6,4.1-21.5l18.3-63.6h60L712.9,603h-57l-8-88.8h-1.1
	c-1,5.4-2.3,10.8-3.9,16.1L619.6,603h-34.4l-21.1-68.6c-1.7-6.9-3.2-13.3-3.7-20.2h-1.9c-0.4,6.5-0.9,13.1-1.5,19.6l-6.9,69.2h-57
	L519.4,440.9z"/>
<path class="st3" d="M719.8,440.9h109v44.3h-49.7v15.5h45.4v42.1h-45.4v15.9h51.4V603H719.8V440.9z"/>
<path class="st3" d="M852.5,545l3,2.4c10.5,8.2,23.2,14.8,36.8,14.8c5.8,0,15.1-2.4,15.1-9.7s-7.7-8-13.1-9l-11.8-2.2
	c-23-4.1-42.4-17.6-42.4-43c0-38.5,35-60,70.3-60c18.1-0.2,35.9,4.7,51.4,14.2L945.8,494c-10.1-6.9-21.5-12.3-34.2-12.3
	c-5.2,0-12.7,1.9-12.7,8.6c0,6,7.3,6.9,11.8,8l13.3,3c24.9,5.6,43,18.9,43,46.4c0,38.7-35.3,57.8-70.3,57.8
	c-21.6-0.3-42.9-5.3-62.3-14.8L852.5,545z"/>
<g>
	<path class="st3" d="M957.4,100V77.3h-8.5v-3h20.4v3h-8.5V100H957.4z"/>
	<path class="st3" d="M972.7,100V74.2h5.1l6.1,18.2c0.6,1.7,1,3,1.2,3.8c0.3-0.9,0.8-2.3,1.4-4.1l6.2-17.9h4.6V100H994V78.4
		l-7.5,21.6h-3.1L976,78.1V100H972.7z"/>
</g>
<g>
	<path class="st4" d="M185.2,330.5h-83.7c-2.1,2.4-4.2,4.8-6.3,7.4v30.9h26.7c-2.8,9.9-14.6,14.2-23.9,14.2c-11.4,0-20-5.9-25-14.5
		c-9.9,14.9-19.4,30.8-27.9,46.1c14.8,9.1,33,14,52.7,14c25.2,0,51.6-10.1,68.8-28.8c18.9-20.4,19.1-42.2,19.5-68.2
		C185.8,331.2,185.5,330.9,185.2,330.5z"/>
	<path class="st4" d="M122.8,323.2l38.2-14c-6.7-4-13.4-6.2-19.9-5.7c-7.6,0.5-16,5-24.6,12.3C119,317.8,121.2,320.3,122.8,323.2z"
		/>
</g>
<g>
	<path class="st4" d="M346.8,426l-2-3c-1,1-2,2.1-2.9,3H346.8z"/>
	<path class="st4" d="M252,414.5c-19.7-21.8-38.9-50.5-57.6-73.3V426H252V414.5z"/>
</g>
<path class="st4" d="M420.2,317.9h0.7c1.1,6.9,2.1,14,3.9,20.9l6.9,28.6h-23.6l10.1-46.5c-26.1,38.1-52,80.5-76.3,105.2h24.1
	c30-39.7,40.3-46.5,81.1-29c10.8,4.6,22.6,15.1,35.6,29h27.2L455,272.4C443.4,285.3,431.8,301.1,420.2,317.9z"/>
<path class="st4" d="M615.3,426h56.3v-77.1c-17.4-20-36.2-38.7-56.3-55.9v19.5c0,13.8,2.6,27.7,4.9,41.3h-1.7l-52.9-89.9h-56.5V426
	h56.3v-52.7c0-10.8-1.7-21.3-3.7-32.5h1.7L615.3,426z"/>
<path class="st4" d="M705,391c-5.6-8-12.1-16.5-19.2-25.3V426H729C721.5,415.3,713.7,403.3,705,391z"/>
<path class="st4" d="M961,426v-44.3h-3.2c-27.8,13.1-54.7,27.9-80.6,44.3H961z"/>
<g>
	<path class="st4" d="M263.4,500.2l55-20.2c-12.7-27.7-51.4-41.7-79.5-41.7c-42.5,0-76.6,22.2-86.8,60.2
		c9.3,8.9,20.5,19.1,34.9,30.5c8.8,6.9,17.3,11.7,25.6,14.6c-2.8-5.6-4.3-11.9-4.2-18.2c0-19.6,11.6-37.6,32.7-37.6
		C250.5,487.8,258.9,492.1,263.4,500.2z"/>
	<path class="st4" d="M235.8,507.5v38.3h7.8c20.4-4.1,39.5-18.7,57.9-38.3H235.8z"/>
</g>
<path class="st4" d="M711.8,596.3l-25.6-155.4h-60L608,504.5c-1.9,6.9-3,14.4-4.1,21.5h-1.5l-22.4-85.1h-60.6l-3.8,23.2
	c13.6,16.2,28.3,33.5,44.1,50.1h0.7c0,0.3,0,0.5,0.1,0.8c21,22,44,42.5,69,57.1l13.5-41.7c1.6-5.3,2.9-10.7,3.9-16.1h1.1l6.3,69.9
	c4.8,1.9,9.7,3.5,14.7,4.9C686.3,593.8,700.3,596,711.8,596.3z"/>
<path class="st4" d="M779.1,500.7v-15.5h49.7v-26.6c-42.6,24.4-66.1,10.7-88.8-17.7h-20.2v155.3c30.5-1.7,42.9-18.8,61.5-37.5h-2.1
	v-15.9h19c8-7.1,16.5-13.9,26.3-21.2v-21H779.1z"/>
<path class="st4" d="M840,498.3c0,3.7,0.4,7.5,1.4,11.1c14-9.9,30.7-21.2,51.6-35.4c22.6-15.3,46.6-19.5,67.6-18.8l1-2.7
	c-15.5-9.5-33.3-14.4-51.4-14.2C875,438.3,840,459.8,840,498.3z"/>
</svg>
